# xmcd
#
# Track frame offsets: 
#        150
#        45752
#        90080
#        124810
#        149870
#        191967
#
# Disc length: 3224 seconds
#
# Revision: 2
# Processed by: cddbd v1.5.2PL0 Copyright (c) Steve Scherf et al.
# Submitted via: ExactAudioCopyFreeDBPlugin 1.0
#
DISCID=4e0c9606
DTITLE=Various Artist - Aromatherapy - Jasmine
DYEAR=2006
DGENRE=Meditative
TTITLE0=Mooving Like A Cloud
TTITLE1=Flower Movement
TTITLE2=True Taste
TTITLE3=Precious Style
TTITLE4=Nature
TTITLE5=Pacifying Your Heart
EXTD=YEAR: 2003
EXTT0=
EXTT1=
EXTT2=
EXTT3=
EXTT4=
EXTT5=
PLAYORDER=
